<svg height="512" viewBox="0 0 60 60" width="512" xmlns="http://www.w3.org/2000/svg"><g id="Page-1" fill="none" fill-rule="evenodd"><g id="040---Pet-First-Aid" fill-rule="nonzero"><rect id="Rectangle-path" fill="#e8edfc" height="44" rx="4" width="58" x="1" y="15"/><path id="Shape" d="m55 15h-3c2.209139 0 4 1.790861 4 4v36c0 2.209139-1.790861 4-4 4h3c2.209139 0 4-1.790861 4-4v-36c0-2.209139-1.790861-4-4-4z" fill="#cad9fc"/><path id="Shape" d="m42 7v4h-4v-4c-.0032948-1.10320187-.8967981-1.9967052-2-2h-12c-1.1032019.0032948-1.9967052.89679813-2 2v4h-4v-4c0-3.3137085 2.6862915-6 6-6h12c3.3137085 0 6 2.6862915 6 6z" fill="#a4c2f7"/><path id="Shape" d="m36 1h-3c3.3137085 0 6 2.6862915 6 6v4h3v-4c0-3.3137085-2.6862915-6-6-6z" fill="#7facfa"/><path id="Shape" d="m23 12v3h-6v-3c0-.5522847.4477153-1 1-1h4c.5522847 0 1 .4477153 1 1z" fill="#e8edfc"/><path id="Shape" d="m43 12v3h-6v-3c0-.5522847.4477153-1 1-1h4c.5522847 0 1 .4477153 1 1z" fill="#e8edfc"/><path id="Shape" d="m37 47.29c-.6188246.4961221-1.3977968.7486656-2.19.71-1.92 0-2.89-1.08-4.81-1.08s-2.89 1.08-4.81 1.08c-.7922032.0386656-1.5711754-.2138779-2.19-.71-.8700113-.8549706-1.2203352-2.1077593-.92-3.29.1639529-.9234602.5712911-1.7864647 1.18-2.5 1.93-2.17 2.89-6.5 6.74-6.5s4.81 4.33 6.74 6.5c.6087089.7135353 1.0160471 1.5765398 1.18 2.5.3003352 1.1822407-.0499887 2.4350294-.92 3.29z" fill="#e8edfc"/><path id="Shape" d="m25.68 32.92c-1.5.26-3-1.02-3.52-2.92-.0505521-.1673431-.0906297-.337673-.12-.51-.2783007-1.328106.0764422-2.7101251.96-3.74.3529009-.3734056.8149929-.6254557 1.32-.72 1.63-.28 3.26 1.26 3.64 3.43s-.65 4.17-2.28 4.46z" fill="#e8edfc"/><path id="Shape" d="m37.99 29.49c-.0293703.172327-.0694479.3426569-.12.51-.52 1.9-2.02 3.18-3.52 2.92-1.63-.29-2.65-2.28-2.27-4.46s2-3.71 3.64-3.43c.4851918.0932121.9311571.3301311 1.28.68.9205243 1.0264837 1.289178 2.4340704.99 3.78z" fill="#e8edfc"/><path id="Shape" d="m43 30h-5.13c-.52 1.9-2.02 3.18-3.52 2.92-1.63-.29-2.65-2.28-2.27-4.46s2-3.71 3.64-3.43c.4851918.0932121.9311571.3301311 1.28.68v-1.71c0-2.7614237-2.2385763-5-5-5h-4c-2.7614237 0-5 2.2385763-5 5v1.75c.3529009-.3734056.8149929-.6254557 1.32-.72 1.63-.28 3.26 1.26 3.64 3.43s-.65 4.17-2.28 4.46c-1.5.26-3-1.02-3.52-2.92h-5.16c-2.7614237 0-5 2.2385763-5 5v4c0 1.3260824.5267842 2.597852 1.4644661 3.5355339s2.2094515 1.4644661 3.5355339 1.4644661h5.08c.1639529-.9234602.5712911-1.7864647 1.18-2.5 1.93-2.17 2.89-6.5 6.74-6.5s4.81 4.33 6.74 6.5c.6087089.7135353 1.0160471 1.5765398 1.18 2.5h5.08c1.3260824 0 2.597852-.5267842 3.5355339-1.4644661s1.4644661-2.2094515 1.4644661-3.5355339v-4c0-1.3260824-.5267842-2.597852-1.4644661-3.5355339s-2.2094515-1.4644661-3.5355339-1.4644661zm-22.56 9.83c-1.4901876.2977085-2.9458202-.6475651-3.28-2.13-.5696829-1.4082889.0988939-3.0128732 1.5-3.6 1.4882313-.3045007 2.9464528.6380083 3.28 2.12.5669414 1.4110327-.1000417 3.0162386-1.5 3.61zm22.4-2.13c-.3341798 1.4824349-1.7898124 2.4277085-3.28 2.13-1.3999583-.5937614-2.0669414-2.1989673-1.5-3.61.3335472-1.4819917 1.7917687-2.4245007 3.28-2.12 1.4011061.5871268 2.0696829 2.1917111 1.5 3.6z" fill="#a4c2f7"/><path id="Shape" d="m42.84 37.7c-.3341798 1.4824349-1.7898124 2.4277085-3.28 2.13-1.3999583-.5937614-2.0669414-2.1989673-1.5-3.61.3335472-1.4819917 1.7917687-2.4245007 3.28-2.12 1.4011061.5871268 2.0696829 2.1917111 1.5 3.6z" fill="#e8edfc"/><path id="Shape" d="m20.44 39.83c-1.4901876.2977085-2.9458202-.6475651-3.28-2.13-.5696829-1.4082889.0988939-3.0128732 1.5-3.6 1.4882313-.3045007 2.9464528.6380083 3.28 2.12.5669414 1.4110327-.1000417 3.0162386-1.5 3.61z" fill="#e8edfc"/><path id="Shape" d="m37 47.29v2.71c0 2.7614237-2.2385763 5-5 5h-4c-2.7614237 0-5-2.2385763-5-5v-2.71c.6188246.4961221 1.3977968.7486656 2.19.71 1.92 0 2.89-1.08 4.81-1.08s2.89 1.08 4.81 1.08c.7922032.0386656 1.5711754-.2138779 2.19-.71z" fill="#a4c2f7"/><path id="Shape" d="m20 12c0-.5522847.4477153-1 1-1v-4c0-3.3137085 2.6862915-6 6-6h-3c-3.3137085 0-6 2.6862915-6 6v4c-.5522847 0-1 .4477153-1 1v3h3z" fill="#fff"/><path id="Shape" d="m4 55v-36c0-2.209139 1.790861-4 4-4h-3c-2.209139 0-4 1.790861-4 4v36c0 2.209139 1.790861 4 4 4h3c-2.209139 0-4-1.790861-4-4z" fill="#fff"/><path id="Rectangle-path" d="m0 19h2v8h-2z" fill="#fff"/><g fill="#428dff"><path id="Shape" d="m1.02 24c-.55228473.0027614-1.00223852-.4427153-1.00499994-.995-.00276143-.5522847.44271521-1.0022385.99499994-1.005h.01c.55228475 0 1 .4477153 1 1s-.44771525 1-1 1z"/><path id="Shape" d="m55 14h-11v-2c-.002145-.7113268-.3832487-1.3675874-1-1.722v-3.278c-.0044086-3.86416566-3.1358343-6.99559136-7-7h-12c-3.8641657.00440864-6.9955914 3.13583434-7 7v3.278c-.6167513.3544126-.997855 1.0106732-1 1.722v2h-11c-2.76005315.0033061-4.99669388 2.2399468-5 5 0 .5522847.44771525 1 1 1s1-.4477153 1-1c0-1.6568542 1.34314575-3 3-3h50c1.6568542 0 3 1.3431458 3 3v36c0 1.6568542-1.3431458 3-3 3h-50c-1.65685425 0-3-1.3431458-3-3v-28c0-.5522847-.44771525-1-1-1s-1 .4477153-1 1v28c.00330612 2.7600532 2.23994685 4.9966939 5 5h50c2.7600532-.0033061 4.9966939-2.2399468 5-5v-36c-.0033061-2.7600532-2.2399468-4.9966939-5-5zm-31-12h12c2.7600532.00330612 4.9966939 2.23994685 5 5v3h-2v-3c0-1.65685425-1.3431458-3-3-3h-12c-1.6568542 0-3 1.34314575-3 3v3h-2v-3c.0033061-2.76005315 2.2399468-4.99669388 5-5zm-1 8.278v-3.278c0-.55228475.4477153-1 1-1h12c.5522847 0 1 .44771525 1 1v3.278c-.6167513.3544126-.997855 1.0106732-1 1.722v2h-12v-2c-.002145-.7113268-.3832487-1.3675874-1-1.722zm-5 3.722v-2h4v2zm20 0v-2h4v2z"/><path id="Shape" d="m22.892 35.921c-.4941262-2.0112372-2.5139807-3.2509669-4.531-2.781-1.928246.7562809-2.8890907 2.9231973-2.155 4.86.2880274.962895.9035088 1.7948562 1.74 2.352.5506123.3671207 1.1962492.5658851 1.858.572.3157236-.0000466.6296183-.0479231.931-.142 1.9279598-.7554849 2.8895656-2.9212156 2.157-4.858zm-2.75 2.949c-.3809366.1034214-.7881892.0299764-1.109-.2-.4418111-.3043465-.765569-.7513229-.917-1.266-.3826102-.8835077-.0160453-1.9124235.839-2.355.1059356-.0325969.2161627-.0491141.327-.049.8273696.0998329 1.5053905.7036703 1.7 1.514.3841429.8840003.0167584 1.9144264-.84 2.356z"/><path id="Shape" d="m39.265 40.78c.3013817.0940769.6152764.1419534.931.142.6617508-.0061149 1.3073877-.2048793 1.858-.572.8361186-.556644 1.4515587-1.3878418 1.74-2.35.7327823-1.9362274-.2278279-4.1017236-2.155-4.858-2.0172066-.4711228-4.0378197.7690724-4.531 2.781-.7319116 1.9364966.2295769 4.1015174 2.157 4.857zm-.246-4.265c.322-1.036 1.257-1.7 2.026-1.465.8550453.4425765 1.2216102 1.4714923.839 2.355-.151431.5146771-.4751889.9616535-.917 1.266-.3208108.2299764-.7280634.3034214-1.109.2-.8563791-.4419226-1.2232942-1.4722587-.839-2.356z"/><path id="Shape" d="m11 35v4c.0033074 3.3123376 2.6876624 5.9966926 6 6h4.014c.0092018.6047404.1362391 1.2018836.374 1.758.1545208.3480649.3608601.6707229.612.957v2.285c.0033074 3.3123376 2.6876624 5.9966926 6 6h4c3.3123376-.0033074 5.9966926-2.6876624 6-6v-2.285c.2511399-.2862771.4574792-.6089351.612-.957.2377609-.5561164.3647982-1.1532596.374-1.758h4.014c3.3123376-.0033074 5.9966926-2.6876624 6-6v-4c-.0033074-3.3123376-2.6876624-5.9966926-6-6h-3.961c.083559-.9975069-.1026053-1.9991328-.539-2.9-.1389104-.2724118-.3065284-.5292025-.5-.766v-1.334c-.0033074-3.3123376-2.6876624-5.9966926-6-6h-4c-3.3123376.0033074-5.9966926 2.6876624-6 6v1.38c-.1775111.2224985-.3325982.4619958-.463.715-.437068.9023947-.6225864 1.9059907-.537 2.905h-4c-3.3123376.0033074-5.9966926 2.6876624-6 6zm25.788 10.938c-.3676039.7364467-1.1589732 1.1617676-1.976 1.062-.7093953-.0254731-1.4071854-.1877815-2.055-.478-.8718671-.3754264-1.8079676-.579148-2.757-.6-.9490324.020852-1.8851329.2245736-2.757.6-.6478146.2902185-1.3456047.4525269-2.055.478-.8170268.0997676-1.6083961-.3255533-1.976-1.062-.4322012-1.3102859-.1266428-2.7517574.8-3.774.6251709-.7606615 1.1766494-1.5790059 1.647-2.444 1.124-1.913 2.187-3.72 4.341-3.72s3.217 1.807 4.341 3.72c.4703506.8649941 1.0218291 1.6833385 1.647 2.444.9266428 1.0222426 1.2322012 2.4637141.8 3.774zm-4.788 8.062h-4c-2.209139 0-4-1.790861-4-4v-1.134c.3895807.0899037.7881813.1348637 1.188.134.9489761-.0213255 1.8849873-.2250276 2.757-.6.647387-.2921805 1.3452387-.4562011 2.055-.483.7094286.0252224 1.4072662.1875418 2.055.478.8720127.3749724 1.8080239.5786745 2.757.6.3996266.0025037.7982248-.0407784 1.188-.129v1.134c0 2.209139-1.790861 4-4 4zm5.005-24.684c-.277 1.6-1.407 2.8-2.482 2.615-.5212639-.1304979-.9530599-.4943876-1.17-.986-.3381661-.720415-.4396789-1.5293668-.29-2.311.259-1.492 1.263-2.634 2.263-2.634.07408-.0001294.1480291.0062282.221.019.5206366.1311072.952075.4943267 1.17.985.3364408.7212914.4372061 1.5302128.288 2.312zm-9.005-9.316h4c2.209139 0 4 1.790861 4 4v.083c-.039-.008-.073-.028-.112-.035-2.182-.377-4.325 1.529-4.795 4.245-.2267083 1.2078725-.0591322 2.4566305.478 3.562.4977056 1.0564204 1.4661042 1.8148943 2.611 2.045.181643.0314351.365657.04716.55.047 1.7492263-.1347807 3.2532489-1.2911476 3.833-2.947h4.435c2.209139 0 4 1.790861 4 4v4c0 2.209139-1.790861 4-4 4h-4.3c-.2532713-.7978782-.6689969-1.5346761-1.221-2.164-.5376214-.6644043-1.0126442-1.3771059-1.419-2.129-1.227-2.097-2.76-4.707-6.06-4.707s-4.833 2.61-6.065 4.707c-.4063558.7518941-.8813786 1.4645957-1.419 2.129-.5502124.6297693-.9642181 1.366536-1.216 2.164h-4.3c-2.209139 0-4-1.790861-4-4v-4c0-2.209139 1.790861-4 4-4h4.469c.57882 1.6560102 2.0820169 2.8131305 3.831 2.949.1846728.0001185.3690153-.0156058.551-.047 2.172-.377 3.558-2.893 3.087-5.609s-2.618-4.621-4.795-4.245c-.05.009-.1.034-.146.046v-.094c-.0000003-1.0613859.4218389-2.0792565 1.1726333-2.8294883.7507945-.7502318 1.7689811-1.1713077 2.8303667-1.1705117zm-3.512 6.019c.07264-.0127289.1462532-.0190865.22-.019 1 0 2 1.142 2.263 2.634.277 1.6-.391 3.112-1.458 3.3s-2.205-1.012-2.484-2.615c-.1509627-.7841236-.0497955-1.5959113.289-2.319.2185321-.4894165.6499738-.8511637 1.17-.981z"/><path id="Shape" d="m5 22c.55228475 0 1-.4477153 1-1v-2c0-.5522847-.44771525-1-1-1s-1 .4477153-1 1v2c0 .5522847.44771525 1 1 1z"/><path id="Shape" d="m4 49c0 .5522847.44771525 1 1 1s1-.4477153 1-1v-24c0-.5522847-.44771525-1-1-1s-1 .4477153-1 1z"/><path id="Shape" d="m4 55c0 .5522847.44771525 1 1 1s1-.4477153 1-1v-2c0-.5522847-.44771525-1-1-1s-1 .4477153-1 1z"/><path id="Shape" d="m55 22c.5522847 0 1-.4477153 1-1v-2c0-.5522847-.4477153-1-1-1s-1 .4477153-1 1v2c0 .5522847.4477153 1 1 1z"/><path id="Shape" d="m54 49c0 .5522847.4477153 1 1 1s1-.4477153 1-1v-24c0-.5522847-.4477153-1-1-1s-1 .4477153-1 1z"/><path id="Shape" d="m54 55c0 .5522847.4477153 1 1 1s1-.4477153 1-1v-2c0-.5522847-.4477153-1-1-1s-1 .4477153-1 1z"/></g></g></g></svg>