<svg xmlns="http://www.w3.org/2000/svg" id="Layer_1" enable-background="new 0 0 48 48" viewBox="0 0 48 48"><polygon fill="#ffbea0" points="35.6 17.8 37 15.8 36.7 15.3 34.6 10.7 33.2 7.6 24.2 7.1 22 22.7 36.2 24.7 38.1 21.3"/><polygon fill="#ffbea0" points="30.7 40.5 31.7 38.9 35.6 27.4 31.5 22.7 24.2 21.4 18.8 17.1 11.4 22.7 13.8 32.7"/><path fill="#ff7170" d="M34.8,46.5v-1.9c-4.6-7.1-21-11.9-21-11.9l-1.1,4.8c0,0-2.2,1.5-2.4,4.3c0,0-3.2,2.2-3.2,4.6H34.8z"/><path fill="#d2e18c" d="M39.5,20.4l-8,2.4c0,0,2.3,4.7-3.9,9.2l4.2,6.9C31.7,38.9,45.4,34.8,39.5,20.4z"/><path fill="#ad9dc4" d="M13.8,32.7c0,0-6.7-2.5-6.7-11.1V15C7,7.6,13.1,1.5,20.6,1.5h16.1c0.2,0,0.3,0.1,0.3,0.3
				c0,1.1-0.4,5-5.2,6.4c-5.7,1.6-7.5,3.4-7.5,13.3h-2.8c0,0-1.7-2.1-3.9-1.7S13.8,22.4,13.8,32.7z"/><path d="M40.5,32.4c1.7-3.5,1.5-7.6-0.4-12.3l-0.3-0.6L38.1,20l-1.6-2.2l1.3-1.9l-3.7-8c3.2-1.9,3.6-5.1,3.6-6.1
		c0-0.3-0.1-0.5-0.3-0.7c-0.2-0.2-0.5-0.3-0.7-0.3H20.6C12.7,0.8,6.3,7.2,6.3,15v6.6c0,7.4,4.9,10.6,6.6,11.5l-0.9,4
		c-0.6,0.5-2.1,2-2.4,4.4c-0.8,0.6-3.2,2.7-3.2,5v0.8h29.2v-2.9l-0.1-0.2c-0.9-1.4-2.2-2.7-3.7-3.9l0.5-0.8
		C33.4,39.1,38.3,37.1,40.5,32.4z M39.2,31.7c-1.8,3.9-5.7,5.7-7.2,6.2l-3.5-5.8c4.5-3.6,4.3-7.3,3.9-8.9l6.6-2
		C40.5,25.3,40.6,28.8,39.2,31.7z M27.4,31.1c-1.4-0.6-6-2.7-9-4.2c-2.7-1.4-2.9-3.5-2.9-4c0.6-1.9,1.4-2.4,2.1-2.5
		c1.7-0.2,3.2,1.5,3.2,1.5l0.2,0.3h3.1l6.8,1.3C31.2,24.5,31.8,27.8,27.4,31.1z M36.1,15.7l-1.5,2l1.9,2.7L31.4,22L25,20.8
		c0.1-9.1,1.8-10.4,7-11.9c0.3-0.1,0.6-0.2,0.9-0.3L36.1,15.7z M7.8,21.6V15C7.8,8,13.5,2.3,20.6,2.3h15.6c-0.1,1.3-0.9,4.1-4.7,5.2
		c-6,1.7-7.9,3.8-8,13.2h-1.8c-0.6-0.6-2.3-2-4.4-1.7c-3,0.4-4.2,4-4.3,12.6C11.3,30.5,7.8,27.6,7.8,21.6z M10.7,42.5l0.3-0.2l0-0.4
		c0.2-1.8,1.3-3,1.8-3.5c1.7,0.7,8.4,3.5,13.6,7.3H7.9C8.4,44.3,10,43,10.7,42.5z M34,44.8v0.9h-5.2c-5.4-4.5-13.1-7.8-15.3-8.7
		l0.8-3.4l0.2,0.1v-0.1C18,34.8,30.1,39.1,34,44.8z M14.5,32.1c0-2.7,0.1-4.8,0.4-6.4c0.6,0.8,1.4,1.7,2.8,2.5
		c3.2,1.7,8.2,3.9,9.3,4.4l3.8,6.3l-0.4,0.6C24.7,35.4,16.7,32.8,14.5,32.1z"/></svg>