<svg xmlns="http://www.w3.org/2000/svg" data-name="Layer 1" viewBox="0 0 512 512"><path fill="#fed402" d="M408.27,200H312.05V7.5h74.47a21.75,21.75,0,0,1,21.75,21.76Z"/><path fill="#fac600" d="M386.52,7.5h-30a21.75,21.75,0,0,1,21.75,21.76V200h30V29.26A21.75,21.75,0,0,0,386.52,7.5Z"/><path fill="#fd4755" d="M312.05,7.5v96.23H119.6V29.26A21.76,21.76,0,0,1,141.36,7.5Z"/><path fill="#09a76d" d="M504.5,312.08H408.27V103.73h74.47a21.75,21.75,0,0,1,21.76,21.75Z"/><path fill="#02905d" d="M482.74,103.73h-30a21.75,21.75,0,0,1,21.76,21.75v186.6h30V125.48A21.75,21.75,0,0,0,482.74,103.73Z"/><path fill="#fd4755" d="M312.05,408.27V312.05H504.5v74.47a21.75,21.75,0,0,1-21.76,21.75Z"/><path fill="#fb2b3a" d="M474.5,312.05v74.47a21.75,21.75,0,0,1-21.76,21.75h30a21.75,21.75,0,0,0,21.76-21.75V312.05Z"/><path fill="#fe9738" d="M103.73,312.05H200V504.5H125.48a21.75,21.75,0,0,1-21.75-21.76Z"/><rect width="30" height="192.45" x="169.95" y="312.05" fill="#fe860a"/><path fill="#26a6fe" d="M200,504.5V408.27H392.4v74.47a21.76,21.76,0,0,1-21.76,21.76Z"/><path fill="#0593fc" d="M362.4,408.27v74.47a21.76,21.76,0,0,1-21.76,21.76h30a21.76,21.76,0,0,0,21.76-21.76V408.27Z"/><path fill="#fed402" d="M7.5,200h96.23V403.28H29.26A21.76,21.76,0,0,1,7.5,381.52Z"/><rect width="30" height="203.33" x="73.73" y="199.95" fill="#fac600"/><path fill="#09a76d" d="M200,103.73V200H7.5V125.48a21.75,21.75,0,0,1,21.76-21.75Z"/><rect width="30" height="96.23" x="169.95" y="103.73" fill="#02905d"/><path fill="#fff" d="M262.58 63.11H169.06a7.5 7.5 0 0 1 0-15h93.52a7.5 7.5 0 0 1 0 15zM360.16 158a7.5 7.5 0 0 1-7.5-7.5V57a7.5 7.5 0 1 1 15 0v93.51A7.5 7.5 0 0 1 360.16 158zM456.39 262.16a7.5 7.5 0 0 1-7.5-7.5V161.14a7.5 7.5 0 0 1 15 0v93.52A7.5 7.5 0 0 1 456.39 262.16zM151.84 462.53a7.5 7.5 0 0 1-7.5-7.5V361.52a7.5 7.5 0 0 1 15 0V455A7.5 7.5 0 0 1 151.84 462.53zM55.61 355.88a7.5 7.5 0 0 1-7.5-7.5V254.86a7.5 7.5 0 0 1 15 0v93.52A7.5 7.5 0 0 1 55.61 355.88zM342.94 463.89H249.42a7.5 7.5 0 1 1 0-15h93.52a7.5 7.5 0 0 1 0 15zM455 367.66H361.52a7.5 7.5 0 0 1 0-15H455a7.5 7.5 0 0 1 0 15zM150.48 159.34H57a7.5 7.5 0 0 1 0-15h93.51a7.5 7.5 0 0 1 0 15z"/></svg>