<svg xmlns="http://www.w3.org/2000/svg" viewBox="0 0 64 64"><g data-name="3-Hospital"><rect width="16" height="48" x="9" y="10" fill="#73cdff"/><rect width="30" height="35" x="25" y="23" fill="#0982c6"/><rect width="22" height="4" x="6" y="6" fill="#0982c6"/><rect width="33" height="4" x="25" y="19" fill="#73cdff"/><rect width="2" height="6" x="16" y="16" fill="#0982c6"/><rect width="6" height="2" x="14" y="18" fill="#0982c6"/><rect width="8" height="12" x="13" y="46" fill="#ff9248"/><rect width="7" height="12" x="32" y="46" fill="#ffd878"/><rect width="7" height="12" x="41" y="46" fill="#ffd878"/><rect width="7" height="3" x="32" y="37" fill="#ff9248"/><rect width="7" height="3" x="32" y="28" fill="#ff9248"/><rect width="7" height="2" x="32" y="33" fill="#ff9248"/><rect width="7" height="3" x="41" y="28" fill="#ff9248"/><rect width="7" height="2" x="41" y="33" fill="#ff9248"/><rect width="7" height="3" x="41" y="37" fill="#ff9248"/><rect width="8" height="2" x="13" y="33" fill="#ffd878"/><rect width="8" height="3" x="13" y="37" fill="#ffd878"/><rect width="8" height="3" x="13" y="28" fill="#ffd878"/></g></svg>