<?xml version="1.0" encoding="UTF-8"?>
<svg xmlns="http://www.w3.org/2000/svg" xmlns:xlink="http://www.w3.org/1999/xlink" version="1.1" id="Layer_1" x="0px" y="0px" viewBox="0 0 24 24" style="enable-background:new 0 0 24 24;" xml:space="preserve">
<g>
	<path style="fill:#303C42;" d="M20.5,16c-0.276,0-0.5,0.224-0.5,0.5v2c0,2.481-2.019,4.5-4.5,4.5h-2c-1.207,0-2.217-0.86-2.449-2   H11.5c0.276,0,0.5-0.224,0.5-0.5V19h4c1.103,0,2-0.897,2-2V2c0-1.103-0.897-2-2-2H5C3.897,0,3,0.897,3,2v15c0,1.103,0.897,2,2,2h4   v1.5C9,20.776,9.224,21,9.5,21h0.551c0.245,1.692,1.691,3,3.449,3h2c3.033,0,5.5-2.467,5.5-5.5v-2C21,16.224,20.776,16,20.5,16z"/>
	<path style="fill:#FAFAFA;" d="M5,1h11c0.551,0,1,0.449,1,1v7.009c-1.493,0.044-2.331,0.28-3.137,0.51   C12.997,9.767,12.18,10,10.5,10S8.003,9.767,7.137,9.519C6.331,9.289,5.493,9.053,4,9.009V2C4,1.449,4.449,1,5,1z"/>
	<path style="fill:#E53935;" d="M4,17v-6.991c1.349,0.042,2.089,0.251,2.863,0.472C7.756,10.736,8.68,11,10.5,11   s2.744-0.264,3.637-0.519c0.774-0.221,1.514-0.43,2.863-0.472V17c0,0.551-0.449,1-1,1h-4.5h-2H5C4.449,18,4,17.551,4,17z"/>
	<path style="opacity:0.5;fill:#FFFFFF;" d="M4.813,9.009V2c0-0.551,0.393-1,0.875-1H5C4.449,1,4,1.449,4,2v7.009   c1.493,0.044,2.331,0.28,3.137,0.51C8.003,9.767,8.82,10,10.5,10c-1.47,0-2.185-0.233-2.942-0.481   C6.852,9.289,6.119,9.053,4.813,9.009z"/>
	<path style="opacity:0.1;" d="M16,1h-0.688c0.482,0,0.875,0.449,0.875,1v7.009c-1.306,0.044-2.04,0.28-2.745,0.51   C12.685,9.767,11.97,10,10.5,10c1.68,0,2.497-0.233,3.363-0.481c0.806-0.23,1.644-0.466,3.137-0.51V2C17,1.449,16.551,1,16,1z"/>
	<path style="opacity:0.2;fill:#FFFFFF;" d="M4.813,17v-6.939C4.566,10.037,4.3,10.018,4,10.009V17c0,0.551,0.449,1,1,1h0.688   C5.205,18,4.813,17.551,4.813,17z"/>
	<path style="opacity:0.1;" d="M16.188,10.061V17c0,0.551-0.393,1-0.875,1H16c0.551,0,1-0.449,1-1v-6.991   C16.7,10.018,16.434,10.037,16.188,10.061z"/>
	<rect x="10" y="19" style="fill:#E53935;" width="1" height="1"/>
	<path style="fill:#303C42;" d="M9.5,3h2C11.776,3,12,2.776,12,2.5S11.776,2,11.5,2H11c0-0.276-0.224-0.5-0.5-0.5S10,1.724,10,2H9.5   C9.224,2,9,2.224,9,2.5S9.224,3,9.5,3z"/>
	<path style="fill:#303C42;" d="M5.5,6h2C7.776,6,8,5.776,8,5.5S7.776,5,7.5,5h-2C5.224,5,5,5.224,5,5.5S5.224,6,5.5,6z"/>
	<path style="fill:#303C42;" d="M5.5,14h1C6.776,14,7,13.776,7,13.5S6.776,13,6.5,13h-1C5.224,13,5,13.224,5,13.5S5.224,14,5.5,14z"/>
	<path style="fill:#303C42;" d="M5.5,12h1C6.776,12,7,11.776,7,11.5S6.776,11,6.5,11h-1C5.224,11,5,11.224,5,11.5S5.224,12,5.5,12z"/>
	<path style="fill:#303C42;" d="M5.5,8h1C6.776,8,7,7.776,7,7.5S6.776,7,6.5,7h-1C5.224,7,5,7.224,5,7.5S5.224,8,5.5,8z"/>
	<path style="fill:#303C42;" d="M7.5,15h-2C5.224,15,5,15.224,5,15.5S5.224,16,5.5,16h2C7.776,16,8,15.776,8,15.5S7.776,15,7.5,15z"/>
	<linearGradient id="SVGID_1_" gradientUnits="userSpaceOnUse" x1="1.0694" y1="5.6969" x2="22.8109" y2="15.8351">
		<stop offset="0" style="stop-color:#FFFFFF;stop-opacity:0.2"/>
		<stop offset="1" style="stop-color:#FFFFFF;stop-opacity:0"/>
	</linearGradient>
	<path style="fill:url(#SVGID_1_);" d="M20.5,16c-0.276,0-0.5,0.224-0.5,0.5v2c0,2.481-2.019,4.5-4.5,4.5h-2   c-1.207,0-2.217-0.86-2.449-2H11.5c0.276,0,0.5-0.224,0.5-0.5V19h4c1.103,0,2-0.897,2-2V2c0-1.103-0.897-2-2-2H5   C3.897,0,3,0.897,3,2v15c0,1.103,0.897,2,2,2h4v1.5C9,20.776,9.224,21,9.5,21h0.551c0.245,1.692,1.691,3,3.449,3h2   c3.033,0,5.5-2.467,5.5-5.5v-2C21,16.224,20.776,16,20.5,16z"/>
</g>
<g>
</g>
<g>
</g>
<g>
</g>
<g>
</g>
<g>
</g>
<g>
</g>
<g>
</g>
<g>
</g>
<g>
</g>
<g>
</g>
<g>
</g>
<g>
</g>
<g>
</g>
<g>
</g>
<g>
</g>

	<metadata>
		<rdf:RDF xmlns:rdf="http://www.w3.org/1999/02/22-rdf-syntax-ns#" xmlns:rdfs="http://www.w3.org/2000/01/rdf-schema#" xmlns:dc="http://purl.org/dc/elements/1.1/">
			<rdf:Description about="https://iconscout.com/legal#licenses" dc:title="infusion; liquid; medical; health" dc:description="infusion; liquid; medical; health" dc:publisher="Iconscout" dc:date="2017-03-22" dc:format="image/svg+xml" dc:language="en">
				<dc:creator>
					<rdf:Bag>
						<rdf:li>Alpár - Etele Méder</rdf:li>
					</rdf:Bag>
				</dc:creator>
			</rdf:Description>
		</rdf:RDF>
    </metadata></svg>
