<svg xmlns="http://www.w3.org/2000/svg" enable-background="new 0 0 468 468" viewBox="0 0 468 468"><path d="M422.804,161.721c-11.096-9.345-25.689-13.284-40.044-10.808c-7.53,1.3-12.995,7.747-12.995,15.33v3.642l-6.387-5.652
		v-46.401c0-2.762-2.239-5.001-5.001-5.001l0,0c-2.762,0-5.001,2.239-5.001,5.001v46.4l-6.386,5.652v-3.641
		c0-7.583-5.465-14.03-12.996-15.33c-29.165-5.036-57.238,17.835-57.238,47.636v40.76c0,9.573,8.977,16.949,18.369,15.33
		c26.889-4.638,51.866-18.457,51.866-49.602v-21.798l11.388-10.077l11.388,10.078v13.426c0,2.762,2.239,5.001,5.001,5.001l0,0
		c2.762,0,5.001-2.239,5.001-5.001v-4.575l15.863,14.037c1.956,1.731,4.968,1.848,6.878,0.066c2.19-2.044,2.104-5.473-0.087-7.41
		l-22.654-20.047v-12.493c0-2.703,1.974-5.007,4.694-5.477c23.178-3.995,45.536,14.074,45.536,37.782v35.117
		c0,2.762,2.239,5.001,5.001,5.001h0c2.762,0,5.001-2.239,5.001-5.001v-35.117C440,184.346,433.733,170.923,422.804,161.721z
		 M336.987,178.735l-22.655,20.048c-4.733,4.189,1.893,11.676,6.63,7.488l16.024-14.181v12.946
		c0,26.139-21.536,35.948-43.564,39.748c-3.375,0.576-6.666-2.002-6.666-5.477v-40.76c0-23.695,22.366-41.777,45.535-37.782
		c2.72,0.47,4.695,2.773,4.695,5.477V178.735z"/><path d="M429.222,254.075c-2.555-14.408-12.529-25.828-29.289-25.828c-15.779,0-29.512,13.521-29.512,29.367
		c0,9.903,4.956,18.67,12.525,23.993v116.694c0,12.057-9.846,21.866-21.949,21.866s-21.948-9.81-21.948-21.866v-37.778
		c0-32.026-26.08-58.081-58.136-58.081s-58.136,26.055-58.136,58.081v47.663c0,14.231-11.618,25.81-25.899,25.81
		c-14.281,0-25.9-11.578-25.9-25.81V248.837c37.609-6.323,69.237-34.139,80.194-70.64l26.136-87.078
		c12.039-40.111-18.12-81.767-59.809-83.36C213.109,2.993,206.82,0,199.844,0h-11.931c-13.236,0-24.006,10.767-24.006,24.008
		c0,13.233,10.769,23.999,24.006,23.999h11.931c6.227,0,11.907-2.384,16.177-6.286c19.886,0.676,34.52,20.396,28.75,39.614
		l-26.137,87.077c-8.453,28.163-35.035,47.832-64.644,47.832c-29.608,0-56.191-19.669-64.643-47.832L63.212,81.335
		c-5.678-18.912,8.443-38.505,28.052-39.594c4.34,4.293,10.302,6.95,16.875,6.95h11.93c13.237,0,24.006-10.767,24.006-24.008
		c0-13.233-10.769-24-24.006-24h-11.93c-6.627,0-12.635,2.699-16.983,7.056c-41.964,1.187-72.604,42.988-60.481,83.38l26.136,87.078
		c10.956,36.502,42.586,64.317,80.193,70.64v159.349c0,32.981,26.859,59.814,59.873,59.814c33.013,0,59.872-26.833,59.872-59.814
		v-47.663c0-13.275,10.839-24.076,24.163-24.076s24.163,10.801,24.163,24.076v37.778c0,30.807,25.086,55.87,55.922,55.87
		s55.922-25.063,55.922-55.87V281.607c7.568-5.322,12.525-14.09,12.525-23.993C429.444,256.416,429.363,255.236,429.222,254.075z
		 M199.844,38.007h-11.931c-7.721,0-14.003-6.28-14.003-14.007c0-7.72,6.282-14,14.003-14h11.931c7.721,0,14.003,6.28,14.003,14.008
		C213.847,31.727,207.565,38.007,199.844,38.007z M108.139,10.684h11.93c7.722,0,14.003,6.28,14.003,14.008
		c0,7.72-6.282,14-14.003,14h-11.93c-7.722,0-14.003-6.28-14.003-14.008C94.136,16.964,100.418,10.684,108.139,10.684z
		 M406.917,398.301c0,25.293-20.6,45.87-45.92,45.87c-25.32,0-45.919-20.577-45.919-45.87v-37.778
		c0-18.79-15.327-34.076-34.165-34.076s-34.165,15.286-34.165,34.076v47.663c0,27.468-22.371,49.814-49.869,49.814
		c-27.499,0-49.871-22.347-49.871-49.814V244.513c0-2.525-1.884-4.655-4.392-4.963c-35.504-4.357-65.952-30.003-76.224-64.228
		L40.255,88.244c-9.492-31.623,12.15-65.28,44.754-69.963c-1.281,4.617-1.144,9.572,0.4,14.113
		C61.935,36.719,46.758,61.312,53.632,84.21l26.136,87.077c9.712,32.357,40.234,54.957,74.224,54.957
		c33.99,0,64.512-22.6,74.224-54.957l26.136-87.077c6.899-22.984-8.428-47.653-32.001-51.862c1.664-4.475,1.941-9.41,0.811-14.04
		c32.51,4.783,54.038,38.381,44.566,69.936l-26.136,87.078c-10.272,34.223-40.719,59.87-76.224,64.228
		c-2.507,0.308-4.392,2.438-4.392,4.963v163.673c0,19.745,16.105,35.81,35.902,35.81c19.796,0,35.901-16.064,35.901-35.81v-47.663
		c0-26.512,21.593-48.081,48.134-48.081s48.134,21.569,48.134,48.081v37.778c0,17.571,14.333,31.866,31.951,31.866
		s31.951-14.295,31.951-31.866V286.144c4.578,1.11,9.391,1.11,13.969,0V398.301z M399.933,276.982
		c-10.757,0-19.51-8.688-19.51-19.368c0-10.679,8.752-19.367,19.51-19.367s19.509,8.688,19.509,19.367
		C419.441,268.294,410.69,276.982,399.933,276.982z"/><ellipse cx="358.397" cy="95.421" rx="6.561" ry="6.579"/></svg>